<!-- Source: https://freesvg.org/vector-clip-art-of-coat-of-arms-of-lindau-city -->

<svg
    xmlns="http://www.w3.org/2000/svg"
    id="svg2780"
    viewBox="0 0 250 250"
  >
  <g
      id="layer1"
      transform="translate(-21.595 -766.93)"
    >
    <rect
        id="rect3290"
        style="fill:#ffffff"
        height="250"
        width="250"
        y="766.93"
        x="21.595"
    />
    <path
        id="path3229"
        style="stroke-opacity:.59712;fill-rule:evenodd;color:#000000;stroke:#000000;stroke-width:1px;fill:#1f872d"
        d="m147.1 775.84c1.78 4.89 10.11 7.75 11.53 15.96 1.44 8.3-4.95 12.29-9.52 10.71l0.09 16.82c2.34-5.99 6.44-10.12 12.14-12.25-1.02-3.64-2.19-7.75 2.11-12.52 4.29-4.77 14.8 0.27 20.22-0.63-1.87 4.01-1.43 11.54-5.24 16.43-3.93 5.02-13.36 3.87-15.41-1.42-5.55 2.59-9.87 9.26-10.68 10.26-0.85 1.04-2.8 3.93-2.8 6.83v22.11c1.38-1.99 3.55-4.25 5.29-5.63 0.03 1.17 0.19 5.55 0.17 6.69-1.6 1.9-2.81 3.77-3.87 6.08 0.05 1.13-0.36 18.03-0.53 27.05 4.02-14.19 12.24-34.2 12.95-35.77 0.67-1.5 1.63-2.54 1.41-3.88-0.23-1.42-1.67-3.5-1.75-5.73-3.78 1.5-8.75-0.35-9.95-5.26-1.19-4.89 5.76-12.54 6.88-17.45 2.81 3.88 9.41 4.18 12.03 10.29 2.61 6.05-1.43 8.75-5.05 11.04 0.48 2.13 0.35 4.09 0.39 6.14 3.91-5.25 10.64-14.24 11.68-15.42 1-1.12 1.1-2.25 1.22-3.73 0.13-1.66-0.33-5.02-1.27-7.89 1.2-0.24 2.67-0.65 3.88-0.89 1.29 2.56 1.09 6.44 1.14 9.25 7.71-7.22 8.93-11.65 8.81-16.86-3.98-0.84-8.59-5.2-6.96-11.6 1.64-6.4 13.16-8.51 16.9-11.59 0.94 10.62 7.18 11.01 5.99 17.55-1.17 6.48-7.41 7.25-12.35 6.95-0.25 2.63-0.86 5.44-2.34 7.71 1.93-0.15 4.28-0.24 6.34-0.09 1.91-4.25 4.72-8.31 11.04-6.78 6.35 1.52 9.69 14.43 13.95 15.66-6.67 1.8-10.85 6.16-17.5 6.25-6.58 0.1-10.05-4.19-8.64-11.43-4.49 0.27-5.63-1.35-8.45 1.15-2.87 2.54-11.17 10.35-15.95 17 2.89-1.38 5.53-1.52 8.19-2.15 0.18-3.78 2.21-7.79 8.8-8.22s11.33 11.34 15.47 12.23c-6.35 1.15-7.73 7.61-15.73 9.12-8.03 1.52-10.17-5.98-9.44-9.99-8.61 1.28-12.31 4.3-16.4 14.56-4.13 10.33-10.14 24.98-14.68 43.54 2.41-4.53 5.11-9.39 7.93-13.23 2.8-3.8 5.05-9.01 5.4-10.97l4.07-1.49 0.25 2.12c-0.78 1.16-1.41 3.82-2.12 5.73 5.78-4.38 6.62-5.69 8.07-11.83-4.07-0.02-8.06-1.71-7.75-8.31 0.3-6.6 10.34-9.7 12.07-13.74 1.42 4.52 9.16 8.21 9.32 14.86 0.17 6.58-4.35 7.64-9.52 8.06l-2.09 4.96c12.58-6.31 18.39-1.52 27.45-11.88-3.98-1.56-7.94-6.77-3.48-12.03 4.5-5.3 13.96-2.94 18.98-4.85-0.58 5.65 1.98 14.34-0.69 18.02-2.63 3.62-9.36 3.7-12.53 0.27-1.33 2.4-3.36 3.8-5.5 5.32 8.52-0.82 16.36 0.78 21.84 4.44 0.98-3.95 3.49-7.38 9.91-6.67 6.43 0.72 10.09 12.85 11.8 17.55-5.24 0.86-10.66 5.55-17.54 3.91-6.96-1.67-7.5-8.67-5.43-12.18-6.47-3.37-15.89-4.1-24.63-4.5 2.91 1.85 4.24 2.99 5.99 5.65 3.52-1.36 9.1-1.9 12.64 2.03 3.59 3.98-0.16 15.89-1.7 20.53-7.19-1.84-12.24-4.13-15.63-8.13-3.35-3.94-2.47-11.36 1.36-13.4-4.43-4.82-6.23-5.01-9.33-4.74s-14.44 4.57-17.73 6.47c1.95 0.34 4.19 1.32 5.46 3.06 2.9-2.86 8.3-5.34 12.73-0.44s0.36 15.18 0.23 20c-7.19-1.84-11.53-0.62-16.33-5.22-4.76-4.56-2.66-10.86 1.04-12.73 0.04 0-4.01-1.59-6.65-1.41s-7.4 6.7-10.04 11.45c-2.65 4.76-4.59 11.28-4.76 16.74-0.18 5.46 0.79 37.09 1.72 45.86 0.92 8.77 9.51 18 29.72 11.77 20.18-6.22 27.48 1.66 31.18 4.13s3.14 9.77 2.46 12.07c-0.7 2.38-1.23 3.08-1.41-1.5-0.17-4.58-5.35-9.6-6.76-10.48s-3.43-1.76-3.43 0.18c0 1.93 1.85 9.16 3.08 12.15 1.23 3-2.82 0.62-4.23-0.88s-3.17-8.1-3.7-11.1c-0.53-2.99-7.64-1.11-9.69-0.88-2.38 0.26-8.81 2.47-8.81 2.47s3.8 2.41 6.09 3.82 4.13 5.3 4.41 7.93c0.26 2.47 1.16 4.86 2.38 7.05 1.21 2.19-0.88 0.97-2.82-0.26-1.94-1.24-3.79-5.73-4.67-8.55s-3.89-5.24-6.36-5.94-9.43-1.06-9.43-1.06 4.23 2.56 6.52 4.32 3.24 7.89 2.89 9.65c-0.35 1.77-0.44 8.29 0.09 10.79 0.52 2.4-0.36 3-2.47-0.6-2.12-3.49-2.11-8.28-2.2-12.74s-3.07-4.37-5.71-6.66-3.87-1.59-5.99-2.29c-2.11-0.71-6.34-3.17-8.63-4.76-2.29-1.58-5.47-4.05-5.47-4.05s2.12 3.08 5.29 6.61c3.17 3.52 1.15 8.9-0.97 11.71-2.11 2.82-3.17 8.37-2.29 10.31 0.88 1.97 1.29 5.97 0.79 8.17-0.52 2.4-1.32 0.7-1.58-1.7-0.28-2.7-1.68-4.6-2.56-7.61-0.88-3-0.7-6.7 1.94-11.19s0.79-6.79-0.62-7.67-1.45-1.67-5.96-7.04c-4.51 5.72-4.55 6.51-5.96 7.4-1.41 0.88-3.26 3.17-0.62 7.66s2.82 8.19 1.94 11.19c-0.88 2.96-2.27 4.96-2.56 7.56-0.26 2.5-1.05 4.2-1.58 1.8-0.5-2.3-0.09-6.3 0.79-8.22 0.88-1.93-0.17-7.48-2.29-10.3-2.11-2.82-4.14-8.2-0.97-11.72s5.29-6.61 5.29-6.61-3.17 2.47-5.46 4.05c-2.29 1.59-6.52 4.06-8.64 4.76-2.11 0.71-3.35 0-5.99 2.29s-5.99 2.32-6.08 6.79c-0.09 4.46-0.09 9.25-2.2 12.76-2.11 3.5-3 3-2.47 0.5 0.53-2.43 0.44-8.95 0.09-10.71s0.97-8.02 3.26-9.78 6.52-4.31 6.52-4.31-6.96 0.35-9.43 1.05c-2.46 0.71-5.72 3-6.6 5.82-0.89 2.82-2.74 7.31-4.674 8.54-1.938 1.24-4.038 2.46-2.819 0.27 1.219-2.2 2.114-4.58 2.379-7.05 0.282-2.63 2.114-6.52 4.404-7.93s6.34-3.7 6.34-3.7-6.43-2.2-8.81-2.47c-2.046-0.22-9.159-2.11-9.687 0.88-0.529 3-2.291 9.61-3.7 11.1-1.409 1.5-5.463 3.88-4.229 0.89 1.233-3 3.083-10.22 3.083-12.16s-2.026-1.06-3.436-0.18c-1.409 0.88-6.96 5.9-7.136 10.49-0.176 4.58-0.705 3.87-1.41 1.49-0.68-2.29-1.233-9.6 2.467-12.07 3.701-2.46 11.624-10.59 31.798-4.37 20.21 6.23 28.8-3 29.72-11.78 0.93-8.77 1.65-40.14 1.47-45.61-0.17-5.46-2.11-11.98-4.75-16.73-2.65-4.76-7.4-11.28-10.05-11.46-2.64-0.17-6.69 1.41-6.65 1.42 3.7 1.86 5.8 8.16 1.05 12.72-4.8 4.6-9.15 3.38-16.34 5.22-0.13-4.82-4.195-15.1 0.24-20 4.42-4.89 9.82-2.42 12.72 0.44 1.27-1.74 3.51-2.72 5.46-3.06-3.29-1.9-14.63-6.2-17.73-6.47s-4.902-0.08-9.332 4.74c3.838 2.04 4.712 9.46 1.366 13.41-3.389 3.99-8.442 6.28-15.627 8.12-1.54-4.64-5.295-16.55-1.706-20.53 3.544-3.92 9.122-3.38 12.638-2.03 1.758-2.65 3.087-3.79 5.994-5.64-8.744 0.39-18.164 1.13-24.63 4.49 2.069 3.51 1.531 10.51-5.434 12.18-6.881 1.65-12.296-3.04-17.532-3.91 1.701-4.7 5.362-16.83 11.792-17.54 6.42-0.72 8.938 2.72 9.917 6.67 5.473-3.67 13.313-5.27 21.838-4.45-2.146-1.52-4.167-2.92-5.503-5.32-3.17 3.43-9.897 3.36-12.528-0.27-2.673-3.68-0.111-12.37-0.692-18.02 5.02 1.91 14.486-0.45 18.985 4.86 4.455 5.25 0.498 10.46-3.488 12.02 9.065 10.36 14.872 5.57 27.462 11.88l-2.1-4.96c-5.17-0.41-9.69-1.47-9.52-8.06 0.16-6.65 7.9-10.34 9.32-14.85 1.73 4.03 11.77 7.14 12.08 13.74 0.3 6.59-3.69 8.28-7.76 8.3 1.46 6.15 2.3 7.45 8.07 11.83-0.71-1.91-1.86-4.75-2.12-5.73l0.25-2.49 4.08 1.86c0.13 1.62 2.6 7.17 5.39 10.97 2.82 3.85 4.82 9.06 7.23 13.58-4.54-18.56-10.56-33.55-14.68-43.89-4.09-10.26-7.96-13.03-16.56-14.31 0.72 4.01-1.42 11.51-9.45 10-8.004-1.51-9.381-7.98-15.725-9.12 4.137-0.9 8.875-12.67 15.465-12.24s8.62 4.44 8.8 8.22c2.66 0.64 5.11 0.52 8 1.91-4.78-6.66-12.37-13.77-15.24-16.3-2.82-2.5-4.315-1.23-8.798-1.51 1.402 7.24-2.061 11.53-8.648 11.44-6.648-0.1-10.824-4.46-17.495-6.26 4.26-1.23 7.599-14.13 13.944-15.66 6.325-1.52 9.136 2.54 11.044 6.78 2.056-0.14 4.236-0.58 6.167-0.43-1.485-2.28-2.088-4.73-2.339-7.36-4.945 0.3-11.182-0.47-12.355-6.95-1.185-6.54 5.055-6.94 5.993-17.55 3.736 3.08 15.257 5.19 16.897 11.59 1.63 6.39-2.97 10.76-6.96 11.6-0.12 5.21 1.98 9.46 9.69 16.69 0.06-2.82-0.15-6.7 1.14-9.25 1.21 0.23 2.06 0.64 3.26 0.88-0.94 2.88-1.27 6.36-1.14 8.01 0.12 1.49-0.03 2.49 0.97 3.62 1.04 1.17 7.81 10.51 11.71 15.77 0.05-2.05-0.09-4.01 0.4-6.15-3.62-2.29-7.66-4.98-5.06-11.04 2.63-6.1 9.22-6.41 12.04-10.29 1.12 4.92 8.07 12.56 6.88 17.45-1.2 4.92-6.17 6.77-9.95 5.27-0.09 2.23-0.81 3.95-1.05 5.37-0.21 1.34 0.03 2.73 0.71 4.23 0.71 1.57 9.63 21.24 13.65 35.42-0.17-9.02-0.58-25.92-0.52-27.05-1.07-2.31-2.27-4.18-3.88-6.08-0.02-1.13 0.15-5.52 0.18-6.69 1.73 1.38 3.9 3.64 5.28 5.64v-22.12c0-2.9-2.32-4.42-3.17-5.46-0.81-0.99-6.87-7.17-10.93-11.38-2.05 5.29-12.25 5.59-14.78 1.17-2.52-4.39-1.88-10.42-2.26-18.55 5.42 0.9 13.56 0.35 17.49 4.25 3.96 3.94 2.88 7.38 1.85 11.02 4.08 4.5 8.06 7.76 12.14 12.26l0.09-16.83c-3.94 0.96-11.83-2.53-10.39-10.83 1.42-8.21 10.62-11.3 12.4-16.19z"
    />
  </g>
</svg>
